<svg xmlns="http://www.w3.org/2000/svg" width="1024" height="1024" viewBox="0 0 1024 1024">
  <defs>
    <style>
      .cls-1, .cls-2 {
        fill: #fff;
      }

      .cls-2 {
        fill-rule: evenodd;
      }
    </style>
  </defs>
  <g id="juju_logo_2026">
    <g id="Energy_balls" data-name="Energy balls">
      <circle class="cls-1" cx="190.58" cy="244.797" r="65.92"/>
      <circle id="Ellipse_2_copy" data-name="Ellipse 2 copy" class="cls-1" cx="89.5" cy="482.313" r="40.97"/>
      <path id="Ellipse_2_copy_4" data-name="Ellipse 2 copy 4" class="cls-2" d="M1917.22,201.992a40.96,40.96,0,1,1-40.96,40.96A40.961,40.961,0,0,1,1917.22,201.992Z" transform="translate(-1124)"/>
      <circle id="Ellipse_2_copy_2" data-name="Ellipse 2 copy 2" class="cls-1" cx="931.83" cy="448.203" r="65.92"/>
    </g>
    <circle id="head" class="cls-1" cx="509.425" cy="164.063" r="162.545"/>
    <path id="body" class="cls-2" d="M1636.21,317.386c50.01,0,115.79,16.312,152.77,45.452,53.24,41.954,43.94,139.8,114.74,210.169,52.93,52.6,132.46,83.081,180.73,80.7,65.62-3.243,71.82,103.155.01,103.935-69.94.759-176.74-29.133-262.52-118.226-9.86-10.248-22.26-22.727-38.97-51.968-23.79,90.911,1.55,167.719,32.37,215.348,106.28-9.6,121.94-23,171.73-23.432,65.37-.572,102.22,52.931,102.22,101.136,0,61.72-43.72,89.853-66.7,94.92-106.36,23.455-225.56,45.424-389.01,45.424-164.63,0-318.03-29.924-379.06-43.946-31.88-7.325-74.35-46.017-73.27-96.266,1.09-50.325,36.13-101.4,106.67-102.567,29.37-.489,75.05,18.887,167.74,24.731,39.22-56.792,52.77-141.08,32.39-214.048-11.62,15.865-32.06,44.465-44.17,55.864-88.32,83.112-167.36,107.078-255.94,111.731-69.1,3.629-69.81-98.811-6.54-102.636,43.08-2.6,117.73-9.233,185.83-79.251,81.49-83.789,67.55-171.315,116.2-209.731C1511.12,342.849,1563.44,317.386,1636.21,317.386Z" transform="translate(-1124)"/>
  </g>
</svg>
